Coordinates
version=1
nRows=29
nColumns=24
inDegrees=yes

Units are S.I. units (second, meters, Newtons, ...)
Angles are in degrees.

endheader
time	pelvis_tilt	pelvis_list	pelvis_rotation	pelvis_tx	pelvis_ty	pelvis_tz	hip_flexion_r	hip_adduction_r	hip_rotation_r	knee_angle_r	ankle_angle_r	subtalar_angle_r	mtp_angle_r	hip_flexion_l	hip_adduction_l	hip_rotation_l	knee_angle_l	ankle_angle_l	subtalar_angle_l	mtp_angle_l	lumbar_extension	lumbar_bending	lumbar_rotation
      0.40000000	      4.81750045	     -1.95870546	     -0.98871092	      0.60146918	      1.04506442	     -0.02148855	     20.16309453	     -2.72443872	     -6.48812393	    -55.18730544	      2.73639284	     -0.00000301	      0.00000000	     -5.79565720	      1.19297490	     -1.07285001	     -7.33517404	      5.39703457	     -0.00000022	      0.00000000	    -16.87993315	     -0.84016704	     -4.71132102
      0.41700000	      4.80956818	     -1.83744582	     -0.84060656	      0.59876839	      1.04418113	     -0.02284221	     20.63286372	     -2.92784932	     -6.96916253	    -50.32044442	      2.75245917	     -0.00000349	      0.00000000	     -7.28714271	      1.40574462	     -0.88953336	     -6.33322174	      5.63105110	     -0.00000017	      0.00000000	    -17.19401530	     -0.80469933	     -5.06269647
      0.43300000	      4.71681102	     -1.50580605	     -0.90172797	      0.59649915	      1.04260663	     -0.02298192	     20.96586082	     -3.28008582	     -7.53109640	    -44.98966466	      2.64444603	     -0.00000426	      0.00000000	     -8.72448716	      1.81269119	     -0.93131410	     -5.31803981	      5.89045952	     -0.00000014	      0.00000000	    -17.21722503	     -1.12074935	     -5.07709353
      0.45000000	      4.84739469	     -1.04069017	     -0.78209219	      0.59436422	      1.04088888	     -0.02322048	     20.78518644	     -3.77496089	     -8.36817826	    -39.21092837	      2.37601066	     -0.00000499	      0.00000000	    -10.32145150	      2.32593941	     -0.74003692	     -4.46366787	      6.23650234	     -0.00000013	      0.00000000	    -17.45244745	     -1.50113024	     -5.20895588
      0.46700000	      4.70533516	     -0.34113234	     -0.74021754	      0.59185436	      1.03829309	     -0.02326409	     20.77991947	     -4.35856251	     -9.07318883	    -33.15786060	      1.94532124	     -0.00000504	      0.00000000	    -11.48967099	      3.07873816	     -0.57350096	     -3.84988942	      6.65056681	     -0.00000006	      0.00000000	    -17.40121797	     -2.19898563	     -5.36661729
      0.48300000	      4.63623127	     -0.03303735	     -0.29913064	      0.59054842	      1.03586520	     -0.02297351	     20.17786855	     -4.45268818	    -10.11073925	    -26.49658807	      1.39761315	     -0.00000469	      0.00000000	    -12.97737974	      3.26411272	     -0.03976397	     -2.90329482	      6.96848246	     -0.00000009	      0.00000000	    -17.38130914	     -2.40006080	     -5.69467554
      0.50000000	      4.50684744	      0.41642224	     -0.30209951	      0.58955807	      1.03283024	     -0.02158656	     19.64174946	     -4.36554657	    -10.19392913	    -19.89900452	      0.91716566	     -0.00000394	      0.00000000	    -14.39883183	      3.64898124	      0.05020673	     -2.05927800	      7.31358822	      0.00000007	      0.00000000	    -17.22161631	     -2.91583477	     -5.48004856
      0.51700000	      4.36301783	      0.98294982	     -0.20980568	      0.58826269	      1.02928015	     -0.02081041	     19.15624722	     -4.42048503	     -9.64911884	    -13.68512381	      0.63447849	     -0.00000290	      0.00000000	    -15.68321317	      4.15250995	      0.32423872	     -1.44238739	      7.73623068	      0.00000018	      0.00000000	    -17.10746637	     -3.39014481	     -5.64899372
      0.53300000	      4.19383614	      1.55300108	      0.11719255	      0.58722748	      1.02536758	     -0.02031859	     18.67378964	     -4.62330219	     -8.77734492	     -8.10826941	      0.64821699	     -0.00000189	      0.00000000	    -16.81697759	      4.57601683	      0.89022512	     -1.12115708	      8.30286932	      0.00000015	      0.00000000	    -16.94182322	     -3.78574270	     -5.79174194
      0.55000000	      4.10280893	      2.13760140	      0.02384939	      0.58676141	      1.02137912	     -0.01941730	     18.23792615	     -4.84478906	     -7.24468326	     -3.47654062	      0.88504022	     -0.00000110	      0.00000000	    -18.10669100	      5.11977077	      1.08160637	     -0.73665628	      8.77416465	      0.00000038	      0.00000000	    -16.81442383	     -4.19881926	     -5.83412741
      0.56700000	      4.02575157	      2.58694280	      0.01822983	      0.58588533	      1.01745406	     -0.01869305	     18.16435143	     -5.09663798	     -5.81125626	     -0.50912605	      1.39095340	     -0.00000073	      0.00000000	    -19.18807755	      5.48802915	      1.41285011	     -0.77339446	      9.40096339	      0.00000041	      0.00000000	    -16.73392176	     -4.44818480	     -5.67995294
      0.58300000	      3.87961438	      2.90807372	      0.66980630	      0.58427699	      1.01398557	     -0.01851412	     18.30695079	     -5.46538767	     -5.42037225	      1.01074868	      1.69683785	     -0.00000037	      0.00000000	    -19.74623869	      5.48539737	      2.30187372	     -1.63623793	     10.25797934	      0.00000061	      0.00000000	    -16.85022225	     -4.27629115	     -6.01297456
      0.60000000	      3.87206878	      2.92052743	      0.71646000	      0.58494544	      1.01125632	     -0.01663188	     18.56904048	     -5.29433675	     -4.90432870	      0.86523963	      1.92118251	     -0.00000054	      0.00000000	    -20.68976893	      5.27012378	      2.54723419	     -2.23972476	     10.82735617	      0.00000092	      0.00000000	    -16.70038544	     -4.06822921	     -5.93624491
      0.61700000	      3.77351714	      2.67192401	      1.00327130	      0.58553755	      1.00892457	     -0.01425057	     19.21827530	     -4.90771512	     -4.95811531	     -0.84087858	      1.66219219	     -0.00000093	      0.00000000	    -21.17708807	      4.66424075	      2.90105672	     -3.50535010	     11.55027165	      0.00000121	      0.00000000	    -16.60969816	     -3.53666252	     -5.96932819
      0.63300000	      3.73664843	      2.63261454	      1.53490896	      0.58648813	      1.00738083	     -0.01184828	     19.92804730	     -4.83106850	     -5.30944400	     -3.58257787	      1.01542027	     -0.00000151	      0.00000000	    -21.55303119	      4.16181345	      3.57872893	     -5.08559723	     12.03665814	      0.00000160	      0.00000000	    -16.58929440	     -3.18728759	     -6.26124828
      0.65000000	      3.60694958	      2.47830521	      2.02380329	      0.58798460	      1.00611001	     -0.00884143	     20.74392013	     -4.63542984	     -5.77650025	     -6.78614285	      0.01009624	     -0.00000213	      0.00000000	    -21.72370157	      3.54524933	      4.22959074	     -6.87364672	     12.34834384	      0.00000200	      0.00000000	    -16.35944586	     -2.80124754	     -6.63234963
      0.66700000	      3.46944942	      2.41985832	      2.41225596	      0.58993290	      1.00553414	     -0.00633153	     21.44472860	     -4.58785027	     -6.05966220	     -9.97335224	     -1.09284081	     -0.00000267	      0.00000000	    -21.66585023	      3.14429315	      4.86348672	     -9.09911994	     12.35296561	      0.00000242	      0.00000000	    -16.08718494	     -2.30136779	     -6.80730326
      0.68300000	      3.54342182	      2.37454365	      2.53569920	      0.59161599	      1.00570512	     -0.00350902	     22.06756521	     -4.50035999	     -6.01416529	    -13.53837908	     -1.69657303	     -0.00000302	      0.00000000	    -21.46723029	      2.88843884	      5.24564513	    -11.97657403	     12.06273112	      0.00000295	      0.00000000	    -15.98318165	     -1.83268460	     -6.70028714
      0.70000000	      3.82041718	      2.09944679	      2.83584734	      0.59500293	      1.00698524	     -0.00110467	     22.11224185	     -4.25518917	     -6.10422800	    -16.80650518	     -1.73245505	     -0.00000337	      0.00000000	    -21.20437676	      2.36436300	      5.62167287	    -15.43645967	     11.27893612	      0.00000358	      0.00000000	    -16.11018539	     -1.13543485	     -6.79934599
      0.71700000	      4.10148512	      1.83351223	      3.05459895	      0.59805326	      1.00877550	      0.00132013	     21.67023864	     -3.97709678	     -6.16209563	    -19.15302140	     -1.61710628	     -0.00000352	      0.00000000	    -20.33306242	      1.92738247	      5.69821051	    -19.88136109	     10.01898971	      0.00000447	      0.00000000	    -16.11746586	     -0.32373668	     -6.91830536
      0.73300000	      4.20492140	      1.70112417	      3.21558405	      0.60028912	      1.01032500	      0.00438664	     21.33529937	     -3.78826546	     -6.22329866	    -21.30025003	     -1.15338987	     -0.00000347	      0.00000000	    -18.32345717	      1.65762944	      5.37394205	    -25.84778792	      8.26802187	      0.00000568	      0.00000000	    -16.00432264	      0.11974076	     -6.77442909
      0.75000000	      4.29959926	      1.41455523	      3.29310227	      0.60293377	      1.01226279	      0.00750128	     20.53666881	     -3.38475010	     -6.42753409	    -22.61820405	     -0.47637530	     -0.00000302	      0.00000000	    -15.89867422	      1.14708553	      4.43348134	    -32.14975535	      5.49043907	      0.00000678	      0.00000000	    -15.85185135	      0.69110229	     -6.97165569
      0.76700000	      4.22456926	      1.06978923	      3.39656549	      0.60486190	      1.01402257	      0.01046997	     19.76404392	     -2.89508381	     -6.64208841	    -23.59924401	      0.51685348	     -0.00000271	      0.00000000	    -12.72192519	      0.36057951	      2.97272334	    -38.89049026	      1.86862216	      0.00000778	      0.00000000	    -15.60809910	      1.31618833	     -6.65024324
      0.78300000	      4.15876455	      0.50262000	      3.47789048	      0.60542560	      1.01578993	      0.01396984	     18.74149335	     -2.07942847	     -6.94140045	    -23.90446331	      1.43864174	     -0.00000243	      0.00000000	     -9.29295068	     -0.93417663	      1.25140324	    -45.38899977	     -2.03542844	      0.00000763	      0.00000000	    -15.45401417	      2.04553527	     -6.25191006
      0.80000000	      4.18037420	     -0.26569669	      3.37996021	      0.60595369	      1.01756837	      0.01767335	     17.58056652	     -0.94792499	     -7.04808492	    -24.05798057	      2.50795148	     -0.00000240	      0.00000000	     -5.97837216	     -2.67018304	     -0.66926061	    -51.33309963	     -5.42060275	      0.00000663	      0.00000000	    -15.36551484	      2.93400294	     -5.44768777
      0.81700000	      4.26381188	     -1.08071118	      3.44053692	      0.60619853	      1.01996813	      0.02149916	     15.99073349	      0.25395922	     -7.30542274	    -23.44901345	      3.34505853	     -0.00000240	      0.00000000	     -2.96638752	     -4.51403112	     -2.00195185	    -56.32313755	     -7.40830432	      0.00000440	      0.00000000	    -15.20710312	      3.79462104	     -5.32691537
      0.83300000	      4.36793140	     -1.55743949	      3.44709740	      0.60599270	      1.02274005	      0.02491626	     14.38727962	      1.11060729	     -7.35462176	    -22.82338521	      4.16758813	     -0.00000237	      0.00000000	     -0.15940490	     -5.85232462	     -2.94950561	    -60.50157310	     -7.78971989	      0.00000174	      0.00000000	    -15.22591566	      4.26649699	     -4.56116211
      0.85000000	      4.48663575	     -1.90331892	      3.28938352	      0.60561810	      1.02585810	      0.02821081	     12.58007482	      1.86986015	     -7.21117240	    -21.77149430	      4.77021318	     -0.00000246	      0.00000000	      2.44128145	     -6.79122100	     -3.59698646	    -63.86515387	     -6.87882225	     -0.00000069	      0.00000000	    -15.37449800	      4.47540711	     -3.88652187
      0.86700000	      4.67237480	     -1.94462019	      3.07613142	      0.60519154	      1.02920981	      0.03113438	     10.74121467	      2.27648117	     -6.93281028	    -20.83865016	      5.35727965	     -0.00000224	      0.00000000	      4.76891757	     -7.17772353	     -4.06210800	    -66.33387550	     -5.38715550	     -0.00000249	      0.00000000	    -15.48466764	      4.41082840	     -3.11711497
